<svg xmlns="http://www.w3.org/2000/svg" xmlns:xlink="http://www.w3.org/1999/xlink" width="100" zoomAndPan="magnify" viewBox="0 0 375 374.999991" height="100" preserveAspectRatio="xMidYMid meet" version="1.0"><defs><g/></defs><path stroke-linecap="butt" transform="matrix(0.75, 0, 0, 0.75, 18.405124, 159.74999)" fill="none" stroke-linejoin="miter" d="M 5.886918 50.000017 L 5.886918 9.572931 L 11.058793 9.572931 L 11.058793 27.656266 L 34.725462 27.656266 L 34.725462 9.572931 L 39.907754 9.572931 L 39.907754 50.000017 L 34.725462 50.000017 L 34.725462 30.156266 L 11.058793 30.156266 L 11.058793 50.000017 Z M 64.121297 50.000017 L 64.121297 9.572931 L 90.787965 9.572931 L 90.787965 12.083348 L 69.293172 12.083348 L 69.293172 27.656266 L 87.689007 27.656266 L 87.689007 30.156266 L 69.293172 30.156266 L 69.293172 47.4896 L 90.787965 47.4896 L 90.787965 50.000017 Z M 140.491094 50.000017 L 134.03276 34.807308 L 116.480675 34.807308 L 110.084842 50.000017 L 107.09005 50.000017 L 124.319217 9.260431 L 128.694218 9.260431 L 146.037969 50.000017 Z M 117.548384 32.291683 L 132.965051 32.291683 L 125.230676 14.156265 Z M 170.293179 50.000017 L 165.126512 50.000017 L 165.126512 9.572931 L 176.220263 9.572931 C 178.735888 9.572931 180.954638 9.73439 182.871305 10.052098 C 184.798388 10.375015 186.532763 10.911473 188.079638 11.656265 C 189.626513 12.401056 190.798389 13.442723 191.595264 14.781265 C 192.392139 16.10939 192.79318 17.73439 192.79318 19.651057 C 192.79318 22.677099 191.751514 25.031266 189.66818 26.708349 C 187.595263 28.375016 184.657763 29.421891 180.85568 29.843766 L 199.355681 50.000017 L 192.689014 50.000017 L 174.980679 30.588558 L 170.293179 30.588558 Z M 170.293179 28.244808 L 175.569221 28.244808 C 179.267138 28.244808 182.100471 27.625016 184.069221 26.380224 C 186.048388 25.130224 187.037972 23.031265 187.037972 20.07814 C 187.037972 17.130223 186.048388 15.031265 184.069221 13.791682 C 182.100471 12.541681 179.246304 11.916681 175.517138 11.916681 L 170.293179 11.916681 Z M 227.142141 50.000017 L 227.142141 12.083348 L 211.725473 12.083348 L 211.725473 9.572931 L 247.777559 9.572931 L 247.777559 12.083348 L 232.3661 12.083348 L 232.3661 50.000017 Z M 280.631728 50.000017 L 266.71506 50.000017 L 266.71506 9.572931 L 279.241103 9.572931 C 284.142145 9.572931 287.944228 10.276056 290.647353 11.682306 C 293.355687 13.088557 294.709854 15.442723 294.709854 18.750015 C 294.709854 21.416682 293.699437 23.593766 291.68902 25.286474 C 289.683812 26.973974 286.954645 28.010432 283.511936 28.401058 L 283.511936 28.453141 C 287.772353 28.520849 291.15777 29.375016 293.668187 31.015641 C 296.173395 32.651058 297.428604 35.08335 297.428604 38.322933 C 297.428604 41.947933 296.006729 44.807309 293.15777 46.890642 C 290.31402 48.963559 286.136936 50.000017 280.631728 50.000017 Z M 271.881727 27.552099 L 279.616103 27.552099 C 282.50152 27.552099 284.819228 26.859391 286.569228 25.468766 C 288.334853 24.083349 289.215062 22.125015 289.215062 19.598974 C 289.215062 14.479182 285.642145 11.916681 278.496311 11.916681 L 271.881727 11.916681 Z M 271.881727 47.656267 L 279.032769 47.656267 C 287.449437 47.656267 291.662978 44.598975 291.662978 38.479183 C 291.662978 32.651058 287.683812 29.739599 279.720269 29.739599 L 271.881727 29.739599 Z M 318.548397 50.000017 L 318.548397 9.572931 L 345.215065 9.572931 L 345.215065 12.083348 L 323.720272 12.083348 L 323.720272 27.656266 L 342.116107 27.656266 L 342.116107 30.156266 L 323.720272 30.156266 L 323.720272 47.4896 L 345.215065 47.4896 L 345.215065 50.000017 Z M 394.918194 50.000017 L 388.45986 34.807308 L 370.907775 34.807308 L 364.51715 50.000017 L 361.522358 50.000017 L 378.746318 9.260431 L 383.121318 9.260431 L 400.465069 50.000017 Z M 371.975484 32.291683 L 387.392151 32.291683 L 379.657776 14.156265 Z M 429.683821 50.000017 L 429.683821 12.083348 L 414.267153 12.083348 L 414.267153 9.572931 L 450.319239 9.572931 L 450.319239 12.083348 L 434.902571 12.083348 L 434.902571 50.000017 Z M 429.683821 50.000017 " stroke="#000000" stroke-width="1.333333" stroke-opacity="1" stroke-miterlimit="4"/><g fill="#000000" fill-opacity="1"><g transform="translate(18.416843, 197.249987)"><g><path d="M 4.40625 0 L 4.40625 -30.3125 L 8.28125 -30.3125 L 8.28125 -16.765625 L 26.046875 -16.765625 L 26.046875 -30.3125 L 29.921875 -30.3125 L 29.921875 0 L 26.046875 0 L 26.046875 -14.875 L 8.28125 -14.875 L 8.28125 0 Z M 4.40625 0 "/></g></g></g><g fill="#000000" fill-opacity="1"><g transform="translate(52.733438, 197.249987)"><g/></g></g><g fill="#000000" fill-opacity="1"><g transform="translate(62.092507, 197.249987)"><g><path d="M 4.40625 0 L 4.40625 -30.3125 L 24.40625 -30.3125 L 24.40625 -28.4375 L 8.28125 -28.4375 L 8.28125 -16.765625 L 22.078125 -16.765625 L 22.078125 -14.875 L 8.28125 -14.875 L 8.28125 -1.875 L 24.40625 -1.875 L 24.40625 0 Z M 4.40625 0 "/></g></g></g><g fill="#000000" fill-opacity="1"><g transform="translate(88.769851, 197.249987)"><g/></g></g><g fill="#000000" fill-opacity="1"><g transform="translate(98.12892, 197.249987)"><g><path d="M 25.640625 0 L 20.796875 -11.40625 L 7.640625 -11.40625 L 2.84375 0 L 0.59375 0 L 13.515625 -30.5625 L 16.796875 -30.5625 L 29.796875 0 Z M 8.4375 -13.28125 L 20 -13.28125 L 14.203125 -26.875 Z M 8.4375 -13.28125 "/></g></g></g><g fill="#000000" fill-opacity="1"><g transform="translate(128.485905, 197.249987)"><g/></g></g><g fill="#000000" fill-opacity="1"><g transform="translate(137.844975, 197.249987)"><g><path d="M 8.28125 0 L 4.40625 0 L 4.40625 -30.3125 L 12.71875 -30.3125 C 14.613281 -30.3125 16.28125 -30.191406 17.71875 -29.953125 C 19.15625 -29.710938 20.453125 -29.3125 21.609375 -28.75 C 22.773438 -28.195312 23.65625 -27.421875 24.25 -26.421875 C 24.851562 -25.421875 25.15625 -24.203125 25.15625 -22.765625 C 25.15625 -20.492188 24.375 -18.726562 22.8125 -17.46875 C 21.257812 -16.21875 19.054688 -15.4375 16.203125 -15.125 L 30.078125 0 L 25.078125 0 L 11.796875 -14.5625 L 8.28125 -14.5625 Z M 8.28125 -16.3125 L 12.234375 -16.3125 C 15.015625 -16.3125 17.144531 -16.78125 18.625 -17.71875 C 20.101562 -18.65625 20.84375 -20.226562 20.84375 -22.4375 C 20.84375 -24.65625 20.101562 -26.226562 18.625 -27.15625 C 17.144531 -28.09375 15.003906 -28.5625 12.203125 -28.5625 L 8.28125 -28.5625 Z M 8.28125 -16.3125 "/></g></g></g><g fill="#000000" fill-opacity="1"><g transform="translate(167.402041, 197.249987)"><g/></g></g><g fill="#000000" fill-opacity="1"><g transform="translate(176.76111, 197.249987)"><g><path d="M 12 0 L 12 -28.4375 L 0.4375 -28.4375 L 0.4375 -30.3125 L 27.484375 -30.3125 L 27.484375 -28.4375 L 15.921875 -28.4375 L 15.921875 0 Z M 12 0 "/></g></g></g><g fill="#000000" fill-opacity="1"><g transform="translate(204.678341, 197.249987)"><g/></g></g><g fill="#000000" fill-opacity="1"><g transform="translate(214.037422, 197.249987)"><g><path d="M 14.84375 0 L 4.40625 0 L 4.40625 -30.3125 L 13.796875 -30.3125 C 17.472656 -30.3125 20.328125 -29.785156 22.359375 -28.734375 C 24.390625 -27.679688 25.40625 -25.914062 25.40625 -23.4375 C 25.40625 -21.4375 24.648438 -19.800781 23.140625 -18.53125 C 21.628906 -17.269531 19.582031 -16.492188 17 -16.203125 L 17 -16.15625 C 20.195312 -16.101562 22.734375 -15.460938 24.609375 -14.234375 C 26.492188 -13.015625 27.4375 -11.191406 27.4375 -8.765625 C 27.4375 -6.046875 26.367188 -3.90625 24.234375 -2.34375 C 22.109375 -0.78125 18.976562 0 14.84375 0 Z M 8.28125 -16.84375 L 14.078125 -16.84375 C 16.234375 -16.84375 17.972656 -17.359375 19.296875 -18.390625 C 20.617188 -19.429688 21.28125 -20.898438 21.28125 -22.796875 C 21.28125 -26.640625 18.597656 -28.5625 13.234375 -28.5625 L 8.28125 -28.5625 Z M 8.28125 -1.765625 L 13.640625 -1.765625 C 19.960938 -1.765625 23.125 -4.054688 23.125 -8.640625 C 23.125 -13.015625 20.132812 -15.203125 14.15625 -15.203125 L 8.28125 -15.203125 Z M 8.28125 -1.765625 "/></g></g></g><g fill="#000000" fill-opacity="1"><g transform="translate(243.554479, 197.249987)"><g/></g></g><g fill="#000000" fill-opacity="1"><g transform="translate(252.913548, 197.249987)"><g><path d="M 4.40625 0 L 4.40625 -30.3125 L 24.40625 -30.3125 L 24.40625 -28.4375 L 8.28125 -28.4375 L 8.28125 -16.765625 L 22.078125 -16.765625 L 22.078125 -14.875 L 8.28125 -14.875 L 8.28125 -1.875 L 24.40625 -1.875 L 24.40625 0 Z M 4.40625 0 "/></g></g></g><g fill="#000000" fill-opacity="1"><g transform="translate(279.590892, 197.249987)"><g/></g></g><g fill="#000000" fill-opacity="1"><g transform="translate(288.949961, 197.249987)"><g><path d="M 25.640625 0 L 20.796875 -11.40625 L 7.640625 -11.40625 L 2.84375 0 L 0.59375 0 L 13.515625 -30.5625 L 16.796875 -30.5625 L 29.796875 0 Z M 8.4375 -13.28125 L 20 -13.28125 L 14.203125 -26.875 Z M 8.4375 -13.28125 "/></g></g></g><g fill="#000000" fill-opacity="1"><g transform="translate(319.306946, 197.249987)"><g/></g></g><g fill="#000000" fill-opacity="1"><g transform="translate(328.666016, 197.249987)"><g><path d="M 12 0 L 12 -28.4375 L 0.4375 -28.4375 L 0.4375 -30.3125 L 27.484375 -30.3125 L 27.484375 -28.4375 L 15.921875 -28.4375 L 15.921875 0 Z M 12 0 "/></g></g></g></svg>